<?xml version="1.0" encoding="utf-8"?>
<!-- Generator: Adobe Illustrator 25.0.1, SVG Export Plug-In . SVG Version: 6.00 Build 0)  -->
<svg version="1.1" id="Layer_2" xmlns="http://www.w3.org/2000/svg" xmlns:xlink="http://www.w3.org/1999/xlink" x="0px" y="0px"
	 width="157.46px" height="150.81px" viewBox="0 0 157.46 150.81" enable-background="new 0 0 157.46 150.81" xml:space="preserve">
<g>
	<path fill="#FFFFFF" d="M143.7,47.77c-0.04-0.15-0.08-0.3-0.14-0.44c-5.44-13.8-14.74-25.58-26.9-34.06
		C104.21,4.59,89.59,0,74.39,0C33.37,0,0,33.64,0,74.98c0,10.68,3.25,18.46,9.72,33.96c0.99,2.37,2.06,4.94,3.22,7.74
		c0.42,1.03,1.31,1.79,2.38,2.06c16.86,4.24,116.08,30.1,123.45,31.96c0.29,0.07,0.57,0.11,0.86,0.11c1.14,0,2.24-0.56,2.9-1.54
		c0.47-0.69,0.95-1.41,1.46-2.14c5.09-7.44,12.07-17.63,13.45-30.39c0.01-0.12,0.02-0.25,0.02-0.38
		C157.46,105.73,147.53,63.25,143.7,47.77z M150.07,111.72L80.35,93.45l-3.8-9.03c-0.41-0.97-1.24-1.71-2.25-2.01
		c-6.57-1.9-11.15-8-11.15-14.84c0-8.52,6.93-15.46,15.46-15.46h58.96C142.37,71.78,148.49,99.37,150.07,111.72z M138.22,143.17
		c-0.03,0.05-0.06,0.09-0.1,0.14c-8.31-2.12-102.06-26.56-119.38-30.93c-0.9-2.19-1.76-4.22-2.55-6.14C9.88,91.14,7,84.25,7,74.98
		C7,37.5,37.23,7,74.39,7c26.06,0,49.3,14.8,60.56,38.11H78.6c-12.38,0-22.46,10.07-22.46,22.46c0,9.36,5.91,17.77,14.57,21.03
		l3.86,9.16c0.42,1,1.29,1.75,2.34,2.03l73.12,19.16C148.17,128.61,142.7,136.62,138.22,143.17z"/>
	<path fill="#FFFFFF" d="M77.89,19.06c0-1.93-1.57-3.5-3.5-3.5c-32.44,0-58.84,26.66-58.84,59.42c0,1.93,1.57,3.5,3.5,3.5
		s3.5-1.57,3.5-3.5c0-28.91,23.25-52.42,51.83-52.42C76.32,22.56,77.89,20.99,77.89,19.06z"/>
	<path fill="#FFFFFF" d="M106.49,62.75c-1.6-1.08-3.78-0.66-4.86,0.94L90.5,80.16c-1.08,1.6-0.66,3.78,0.94,4.86
		c0.6,0.41,1.28,0.6,1.96,0.6c1.12,0,2.23-0.54,2.9-1.54l11.13-16.47C108.51,66.01,108.09,63.84,106.49,62.75z"/>
	<path fill="#FFFFFF" d="M129.46,62.75c-1.6-1.08-3.78-0.66-4.86,0.94l-14.83,21.95c-1.08,1.6-0.66,3.78,0.94,4.86
		c0.6,0.41,1.28,0.6,1.96,0.6c1.12,0,2.23-0.54,2.9-1.54l14.83-21.95C131.49,66.01,131.06,63.84,129.46,62.75z"/>
</g>
</svg>
