<?xml version="1.0" encoding="utf-8"?>
<!-- Generator: Adobe Illustrator 25.2.3, SVG Export Plug-In . SVG Version: 6.00 Build 0)  -->
<svg version="1.1" id="Capa_1" xmlns="http://www.w3.org/2000/svg" xmlns:xlink="http://www.w3.org/1999/xlink" x="0px" y="0px"
	 viewBox="0 0 229.2 279.8" style="enable-background:new 0 0 229.2 279.8;" xml:space="preserve">
<style type="text/css">
	.st0{fill:#FFFFFF;}
</style>
<g>
	<g>
		<path class="st0" d="M141,266.2c26.7-17.9,45.2-34.5,58.7-52.8c19.8-26.7,29.5-58,29.5-95.7V66c0-6.7-3.7-12.7-9.7-15.7l0,0
			L122.4,1.8c-4.9-2.4-10.7-2.4-15.6,0L9.7,50.4c0,0,0,0,0,0c-6,3-9.7,9-9.7,15.7v14l0,15v22.8c0,10.9,0.8,21.3,2.5,31.3l3.2,15
			c2,7.4,4.5,14.5,7.5,21.3l7.7,15c2.6,4.5,5.5,8.8,8.7,13.1c2.1,2.8,4.3,5.5,6.6,8.3l14.3,15c14.1,13.3,32,26.4,55.1,40.5
			c2.8,1.7,6,2.6,9.2,2.6s6.3-0.9,9.2-2.6c0.8-0.5,1.5-0.9,2.3-1.4 M214.2,117.8c0,72.1-37.6,109.6-98.3,146.7
			c-0.8,0.5-1.8,0.5-2.6,0C52.6,227.3,15,189.9,15,117.8V66c0-1,0.5-1.8,1.4-2.2l97.1-48.5c0.7-0.4,1.5-0.4,2.2,0l97.1,48.5
			c0.9,0.4,1.4,1.3,1.4,2.2L214.2,117.8L214.2,117.8z"/>
		<path class="st0" d="M114.1,52.1c-41.9,0-75.9,34-75.9,75.9s34,75.9,75.9,75.9c32,0,60.8-20.3,71.5-50.4c1.4-3.9-0.6-8.2-4.5-9.6
			s-8.2,0.6-9.6,4.5c-8.6,24.2-31.7,40.5-57.4,40.5c-33.6,0-60.9-27.3-60.9-60.9s27.3-60.9,60.9-60.9c29.6,0,54.8,21.1,59.9,50.2
			c0.7,4.1,4.6,6.8,8.7,6.1c4.1-0.7,6.8-4.6,6.1-8.7C182.4,78.4,151,52.1,114.1,52.1L114.1,52.1z"/>
		<path class="st0" d="M140.1,107.5l-29.6,29.6l-17.2-17.2c-2.9-2.9-7.7-2.9-10.6,0c-2.9,2.9-2.9,7.7,0,10.6l22.5,22.5
			c1.4,1.4,3.3,2.2,5.3,2.2s3.9-0.8,5.3-2.2l34.9-34.9c2.9-2.9,2.9-7.7,0-10.6S143.1,104.6,140.1,107.5L140.1,107.5z"/>
	</g>
</g>
</svg>
