<?xml version="1.0" encoding="utf-8"?>
<!-- Generator: Adobe Illustrator 24.2.1, SVG Export Plug-In . SVG Version: 6.00 Build 0)  -->
<svg version="1.1" id="Layer_2" xmlns="http://www.w3.org/2000/svg" xmlns:xlink="http://www.w3.org/1999/xlink" x="0px" y="0px"
	 viewBox="0 0 194.9 190" style="enable-background:new 0 0 194.9 190;" xml:space="preserve">
<style type="text/css">
	.st0{fill:#FFFFFF;}
</style>
<g>
	<path class="st0" d="M41.2,0C18.9,0,0.7,18.2,0.7,40.5c0,22.4,18.2,40.5,40.5,40.5s40.5-18.2,40.5-40.5C81.8,18.2,63.6,0,41.2,0z
		 M41.2,74.3c-18.6,0-33.8-15.2-33.8-33.8c0-18.6,15.2-33.8,33.8-33.8S75,21.9,75,40.5C75,59.2,59.9,74.3,41.2,74.3z"/>
	<path class="st0" d="M48,30.4c0,1.9,1.5,3.4,3.4,3.4c1.9,0,3.4-1.5,3.4-3.4c0-6.3-4.3-11.5-10.1-13v-0.5c0-1.9-1.5-3.4-3.4-3.4
		c-1.9,0-3.4,1.5-3.4,3.4v0.5c-5.8,1.5-10.1,6.8-10.1,13c0,6.3,4.3,11.5,10.1,13v13.1c-2-1.2-3.4-3.3-3.4-5.8c0-1.9-1.5-3.4-3.4-3.4
		c-1.9,0-3.4,1.5-3.4,3.4c0,6.3,4.3,11.5,10.1,13v0.5c0,1.9,1.5,3.4,3.4,3.4c1.9,0,3.4-1.5,3.4-3.4v-0.5c5.8-1.5,10.1-6.8,10.1-13
		c0-6.3-4.3-11.5-10.1-13V24.6C46.6,25.8,48,27.9,48,30.4z M34.5,30.4c0-2.5,1.4-4.6,3.4-5.8v11.6C35.9,35.1,34.5,32.9,34.5,30.4z
		 M48,50.7c0,2.5-1.4,4.6-3.4,5.8V44.9C46.6,46,48,48.2,48,50.7z"/>
</g>
<g>
	<path class="st0" d="M33,137.4c-14.5,0-26.3,11.8-26.3,26.3C6.7,178.2,18.5,190,33,190c14.5,0,26.3-11.8,26.3-26.3
		C59.2,149.2,47.5,137.4,33,137.4z M33,184.4c-11.4,0-20.6-9.3-20.6-20.6c0-11.4,9.2-20.6,20.6-20.6c11.4,0,20.6,9.3,20.6,20.6
		C53.6,175.1,44.3,184.4,33,184.4z"/>
	<path class="st0" d="M33,150c-7.5,0-13.7,6.1-13.7,13.7c0,7.6,6.1,13.7,13.7,13.7c7.5,0,13.7-6.1,13.7-13.7
		C46.6,156.2,40.5,150,33,150z M33,171.8c-4.4,0-8-3.6-8-8c0-4.4,3.6-8,8-8c4.4,0,8,3.6,8,8C41,168.2,37.4,171.8,33,171.8z"/>
	<path class="st0" d="M168.6,137.4c-14.5,0-26.3,11.8-26.3,26.3c0,14.5,11.8,26.3,26.3,26.3c14.5,0,26.3-11.8,26.3-26.3
		C194.9,149.2,183.1,137.4,168.6,137.4z M168.6,184.4c-11.4,0-20.6-9.3-20.6-20.6c0-11.4,9.2-20.6,20.6-20.6
		c11.4,0,20.6,9.3,20.6,20.6C189.2,175.1,179.9,184.4,168.6,184.4z"/>
	<path class="st0" d="M168.6,150c-7.5,0-13.7,6.1-13.7,13.7c0,7.6,6.1,13.7,13.7,13.7c7.5,0,13.7-6.1,13.7-13.7
		C182.3,156.2,176.1,150,168.6,150z M168.6,171.8c-4.4,0-8-3.6-8-8c0-4.4,3.6-8,8-8c4.4,0,8,3.6,8,8
		C176.6,168.2,173,171.8,168.6,171.8z"/>
	<path class="st0" d="M168.6,130.5c1,0,1.8-0.5,2.4-1.3c0.5-0.8,0.6-1.8,0.2-2.7c-0.4-0.8-8.9-20.5-32.5-35.7l-0.3-0.2l7.4-7.4
		c0.8-0.8,1-2,0.7-3c-0.2-0.6-5.4-13.7-31.2-15.2c-0.1,0-0.1,0-0.2,0c-0.9,0-1.7,0.4-2.2,1.1c-0.6,0.7-0.7,1.7-0.5,2.6l2.8,8.7h-9.9
		c-1.6,0-2.8,1.3-2.8,2.8s1.3,2.8,2.8,2.8h11.7l0.1,0.2c0.1,0.3,9.2,28,13.6,42.3l0,0.1l-0.1,0.1c-4.4,8.6-10.4,21.1-12.8,26.1
		l-0.1,0.2h-16.1L89,124.6l4.8-5c0.5-0.5,0.8-1.2,0.8-2c0-8-6.5-14.7-14.6-14.8l-52.2-7.5c-0.1,0-0.3,0-0.4,0
		c-8.2,0-14.8,6.6-14.8,14.8c0,0.5,0.1,1,0.4,1.4l2.5,4.4L0.8,131.2c-0.5,0.5-0.8,1.3-0.8,2c0,0.8,0.3,1.5,0.9,2
		c0.5,0.5,1.2,0.8,2,0.8c0.8,0,1.5-0.3,2.1-0.9l13.3-14l2.2,3.9c0.5,0.9,1.4,1.4,2.5,1.4h17.9l21.5,13.3l14.5,31.7
		c0.5,1,1.5,1.7,2.6,1.7h53.8c0.8,0,1.6-0.4,2.2-1c0.5-0.6,0.8-1.5,0.6-2.3c-0.4-2-0.6-4.1-0.6-6.1c0-2.5,0.3-5.1,0.9-7.7
		C139.9,141,153.1,130.5,168.6,130.5z M124.5,88.2L119,71.1l0.5,0.1c13,1.7,18.5,6.6,20.6,9.4l0.2,0.2l-7.4,7.4h-0.1c0,0-6.7,0-8,0
		L124.5,88.2z M24.5,120.7l-6.4-11.3l0-0.1c0.4-4.6,4.2-8.2,8.9-8.3l0,0l52.2,7.5c0.1,0,0.3,0,0.4,0c4.6,0,8.4,3.4,9.1,7.9l0,0.2
		l-4,4.1L24.5,120.7z M130.1,158.1c-0.3,1.9-0.4,3.7-0.4,5.6c0,1.1,0.1,2.3,0.2,3.4l0,0.3H81.1L67,136.6c-0.2-0.5-0.6-0.9-1.1-1.2
		l-14.4-9h32l3.1,6.8h-5.4c-1.6,0-2.8,1.3-2.8,2.8c0,1.6,1.3,2.8,2.8,2.8h8l3.2,6.9h-6.2c-1.6,0-2.8,1.3-2.8,2.8s1.3,2.8,2.8,2.8H95
		l2.1,4.6c0.5,1,1.5,1.7,2.6,1.7h30.5L130.1,158.1z M131.6,151.9l-0.1,0.2h-7.6l0.2-0.5c2.9-6,8.3-17.1,12-24.3
		c0.3-0.7,0.4-1.4,0.2-2.1c-4.6-15.2-7.6-24.3-9.8-30.9l-0.1-0.4l6.5,0l0.1,0c8.6,5.1,16.2,11.5,22.6,19.1l0.4,0.5h-10.8
		c-1.6,0-2.8,1.3-2.8,2.8s1.3,2.8,2.8,2.8h15.2l0.1,0.1c1.2,1.8,2.4,3.6,3.4,5.3l0.2,0.4l-0.5,0.1
		C148.7,127.1,136.2,137.5,131.6,151.9z"/>
</g>
</svg>
