<?xml version="1.0" encoding="utf-8"?>
<!-- Generator: Adobe Illustrator 24.2.1, SVG Export Plug-In . SVG Version: 6.00 Build 0)  -->
<svg version="1.1" id="Capa_1" xmlns="http://www.w3.org/2000/svg" xmlns:xlink="http://www.w3.org/1999/xlink" x="0px" y="0px"
	 viewBox="0 0 1308.6 1167" style="enable-background:new 0 0 1308.6 1167;" xml:space="preserve">
<style type="text/css">
	.st0{fill-rule:evenodd;clip-rule:evenodd;fill:#FFFFFF;}
	.st1{fill:#FFFFFF;}
</style>
<g>
	<path class="st0" d="M1212.2,385.8v679.6h57.3c10.8,0,20.5,5.7,27.6,14.9s11.5,21.9,11.5,35.9s-4.4,26.7-11.5,35.9
		s-16.8,14.9-27.6,14.9H39.1c-10.8,0-20.5-5.7-27.6-14.9S0,1130.2,0,1116.2s4.4-26.7,11.5-35.9s16.8-14.9,27.6-14.9h57.3V385.8H65.8
		c-15.8,0-30.2-7.9-40.7-20.6c-10.7-12.9-17.3-30.8-17.3-50.6c0-19.7,6.6-37.6,17.3-50.6c10.5-12.7,24.9-20.6,40.7-20.6h11.5V11.9
		C77.3,5.3,81.4,0,86.5,0h1126.9c5,0,9.1,5.3,9.1,11.9v231.6h8.3c15.8,0,42.2,7.9,52.7,20.6c10.7,12.9,17.3,30.8,17.3,50.6
		c0,19.7-6.6,37.6-17.3,50.6c-10.5,12.7-24.9,20.6-40.7,20.6L1212.2,385.8L1212.2,385.8z M1194,1065.4V385.8H114.6v679.6H1194z
		 M1161.5,427.8v-12.1h-10.1H154.8h-10.1v12.1V1029v12.1h10.1h996.6h10.1V1029L1161.5,427.8z M1081.2,302.8h200.1
		c-1.8-8.2-5.3-15.5-10.2-21.3c-7.2-8.8-17.2-14.2-28.3-14.2h-120.6H186.4H65.8c-11.1,0-21.1,5.4-28.3,14.2
		c-7,8.6-11.4,20.3-11.4,33.2s4.4,24.6,11.4,33.2c7.2,8.8,17.2,14.2,28.3,14.2h39.7h1097.6h39.7c11.1,0,21.1-5.4,28.3-14.2
		c4.8-5.8,8.4-13.2,10.2-21.3h-200.1c-5,0-9.1-5.3-9.1-11.9C1072,308.1,1076.1,302.8,1081.2,302.8L1081.2,302.8z M95.6,243.5h1108.6
		V23.8H95.6V243.5z M1203.1,1089.2H105.5H39.1c-5.7,0-10.9,3-14.7,7.9s-6.1,11.7-6.1,19.1s2.3,14.2,6.1,19.1s9,8,14.7,8h1230.5
		c5.7,0,10.9-3,14.7-8c3.8-4.9,6.1-11.7,6.1-19.1s-2.3-14.2-6.1-19.1s-9-7.9-14.7-7.9H1203.1z M1126.1,772.8H178.7V452.1h947.4
		L1126.1,772.8z"/>
	<path class="st1" d="M647.8,62.6v138.7h32.9v-58.1h28.6v58.1H742V62.6h-32.7v55.3h-28.6V62.6H647.8z"/>
	<path class="st1" d="M393.8,62.6v138.7H424v-88.2l17.7,88.2h20l18-88.2v88.2H510V62.6h-44.9l-13.2,66.7l-13.3-66.7H393.8z"/>
	<path class="st1" d="M204.5,62.6l20,62l20.1-62h32.7L242,155.9v45.4h-34.9v-45.4l-35.3-93.3H204.5z"/>
	<path class="st1" d="M346.8,62.6h-43.6l-28.6,138.7h32.6l5.5-33h24.6l5.5,33h32.7L346.8,62.6z M325,94l8.2,49.2H317L325,94z"/>
	<path class="st1" d="M600.7,62.6h-43.6l-28.6,138.7H561l5.5-33h24.6l5.5,33h32.7L600.7,62.6z M578.8,94l8.2,49.2h-16.2L578.8,94z"
		/>
	<path class="st1" d="M832.9,62.6h-43.6l-28.6,138.7h32.6l5.5-33h24.5l5.5,33h32.7L832.9,62.6z M811,94l8.2,49.2H803L811,94z"/>
	<g>
		<path class="st0" d="M1205.3,105c4.8-4.3,8.4-9.7,10.2-15.6H945.4c-5,0-9.1-3.9-9.1-8.7c-0.1-4.8,4-8.7,9.1-8.7h270.1
			c-1.8-6-5.3-11.4-10.2-15.6"/>
		<path class="st0" d="M1205.3,151.2c4.8-4.3,8.4-9.7,10.2-15.6H955.4c-5,0-9.1-3.9-9.1-8.7c-0.1-4.8,4-8.7,9.1-8.7h260.1
			c-1.8-6-5.3-11.4-10.2-15.6"/>
		<path class="st0" d="M1205.3,196.4c4.8-4.3,8.4-9.7,10.2-15.6H965.4c-5,0-9.1-3.9-9.1-8.7c-0.1-4.8,4-8.7,9.1-8.7h250.1
			c-1.8-6-5.3-11.4-10.2-15.6"/>
	</g>
</g>
</svg>
